<?xml version="1.0" encoding="utf-8"?>
<!-- Generator: Adobe Illustrator 27.0.0, SVG Export Plug-In . SVG Version: 6.00 Build 0)  -->
<svg version="1.1" id="Layer_1" xmlns="http://www.w3.org/2000/svg" xmlns:xlink="http://www.w3.org/1999/xlink" x="0px" y="0px"
	 viewBox="0 0 24 24" style="enable-background:new 0 0 24 24;" xml:space="preserve">
<style type="text/css">
	.st0{fill:#fff;}
</style>
<path class="st0" d="M2.5,24c-0.6,0-1.3-0.2-1.8-0.7c-1-1-1-2.6,0-3.6l19-19c1-1,2.6-1,3.6,0s1,2.6,0,3.6l-19,19
	C3.8,23.8,3.1,24,2.5,24z"/>
<path class="st0" d="M21.5,24c-0.6,0-1.3-0.2-1.8-0.7l-19-19c-1-1-1-2.6,0-3.6s2.6-1,3.6,0l19,19c1,1,1,2.6,0,3.6
	C22.8,23.8,22.1,24,21.5,24z"/>
</svg>
